<?xml version="1.0" encoding="utf-8"?>
<!-- Generator: Adobe Illustrator 16.0.3, SVG Export Plug-In . SVG Version: 6.00 Build 0)  -->
<!DOCTYPE svg PUBLIC "-//W3C//DTD SVG 1.1//EN" "http://www.w3.org/Graphics/SVG/1.1/DTD/svg11.dtd">
<svg version="1.1" id="Layer_1" xmlns="http://www.w3.org/2000/svg" xmlns:xlink="http://www.w3.org/1999/xlink" x="0px" y="0px"
	 width="1400px" height="980px" viewBox="0 0 1400 980" enable-background="new 0 0 1400 980" xml:space="preserve">
<path fill-rule="evenodd" clip-rule="evenodd" fill="#221F20" d="M1004.893,248.255h9.395c-2.431,3.069-3.889,6.943-3.889,11.165
	c0,1.556,0.201,3.069,0.569,4.514h-6.075V248.255z M1028.383,262.822c-1.882,0-3.402-1.527-3.402-3.402
	c0-1.881,1.521-3.402,3.402-3.402c1.875,0,3.402,1.521,3.402,3.402C1031.785,261.295,1030.258,262.822,1028.383,262.822
	L1028.383,262.822z M1028.383,273.238c-7.631,0-13.818-6.188-13.818-13.818s6.188-13.817,13.818-13.817s13.811,6.187,13.811,13.817
	S1036.014,273.238,1028.383,273.238L1028.383,273.238z M1028.383,267.26c-4.333,0-7.84-3.514-7.84-7.84
	c0-4.332,3.507-7.84,7.84-7.84c4.326,0,7.839,3.508,7.839,7.84C1036.222,263.746,1032.709,267.26,1028.383,267.26L1028.383,267.26z
	 M1058.816,262.822c-1.882,0-3.402-1.527-3.402-3.402c0-1.881,1.521-3.402,3.402-3.402c1.875,0,3.402,1.521,3.402,3.402
	C1062.219,261.295,1060.691,262.822,1058.816,262.822L1058.816,262.822z M1058.816,273.238c-7.631,0-13.817-6.188-13.817-13.818
	s6.187-13.817,13.817-13.817c7.632,0,13.818,6.187,13.818,13.817S1066.448,273.238,1058.816,273.238L1058.816,273.238z
	 M1058.816,267.26c-4.325,0-7.839-3.514-7.839-7.84c0-4.332,3.514-7.84,7.839-7.84c4.326,0,7.84,3.508,7.84,7.84
	C1066.656,263.746,1063.143,267.26,1058.816,267.26L1058.816,267.26z M1190.837,262.822c-1.882,0-3.402-1.527-3.402-3.402
	c0-1.881,1.521-3.402,3.402-3.402c1.875,0,3.402,1.521,3.402,3.402C1194.239,261.295,1192.712,262.822,1190.837,262.822
	L1190.837,262.822z M1190.837,273.238c-7.632,0-13.818-6.188-13.818-13.818s6.187-13.817,13.818-13.817
	c7.631,0,13.811,6.187,13.811,13.817S1198.468,273.238,1190.837,273.238L1190.837,273.238z M1190.837,267.26
	c-4.333,0-7.84-3.514-7.84-7.84c0-4.332,3.507-7.84,7.84-7.84c4.325,0,7.839,3.508,7.839,7.84
	C1198.676,263.746,1195.162,267.26,1190.837,267.26L1190.837,267.26z M1251.705,262.822c-1.875,0-3.402-1.527-3.402-3.402
	c0-1.881,1.527-3.402,3.402-3.402c1.881,0,3.402,1.521,3.402,3.402C1255.107,261.295,1253.586,262.822,1251.705,262.822
	L1251.705,262.822z M1251.705,273.238c-7.631,0-13.818-6.188-13.818-13.818s6.188-13.817,13.818-13.817s13.817,6.187,13.817,13.817
	S1259.336,273.238,1251.705,273.238L1251.705,273.238z M1251.705,267.26c-4.326,0-7.84-3.514-7.84-7.84
	c0-4.332,3.514-7.84,7.84-7.84c4.333,0,7.839,3.508,7.839,7.84C1259.544,263.746,1256.038,267.26,1251.705,267.26L1251.705,267.26z
	 M1221.271,262.822c-1.882,0-3.402-1.527-3.402-3.402c0-1.881,1.521-3.402,3.402-3.402c1.875,0,3.402,1.521,3.402,3.402
	C1224.673,261.295,1223.146,262.822,1221.271,262.822L1221.271,262.822z M1221.271,273.238c-7.631,0-13.817-6.188-13.817-13.818
	s6.187-13.817,13.817-13.817s13.818,6.187,13.818,13.817S1228.901,273.238,1221.271,273.238L1221.271,273.238z M1221.271,267.26
	c-4.325,0-7.839-3.514-7.839-7.84c0-4.332,3.514-7.84,7.839-7.84c4.326,0,7.84,3.508,7.84,7.84
	C1229.11,263.746,1225.597,267.26,1221.271,267.26L1221.271,267.26z M1017.759,173.798h259.325c1.909,0,3.472,1.563,3.472,3.472
	v59.778c0,1.909-1.563,3.472-3.472,3.472h-262.797v-63.25C1014.287,175.36,1015.85,173.798,1017.759,173.798L1017.759,173.798z
	 M1029.736,184.616h31.08c1.146,0,2.083,0.931,2.083,2.083c0,1.146-0.938,2.083-2.083,2.083h-31.08
	c-1.146,0-2.083-0.938-2.083-2.083C1027.653,185.547,1028.591,184.616,1029.736,184.616L1029.736,184.616z M1078.975,184.616
	h183.931c1.146,0,2.083,0.931,2.083,2.083c0,1.146-0.938,2.083-2.083,2.083h-183.931c-1.146,0-2.084-0.938-2.084-2.083
	C1076.891,185.547,1077.828,184.616,1078.975,184.616L1078.975,184.616z M1005.087,240.617v-68.875c0-4.867,3.562-8.811,7.964-8.811
	c1.146,0,2.083,1.034,2.083,2.305s-0.937,2.305-2.083,2.305c-2.097,0-3.798,1.883-3.798,4.201v68.875H1005.087z M982.638,262.822
	c-1.882,0-3.402-1.527-3.402-3.402c0-1.881,1.521-3.402,3.402-3.402c1.875,0,3.396,1.521,3.396,3.402
	C986.033,261.295,984.513,262.822,982.638,262.822L982.638,262.822z M982.638,273.238c-7.631,0-13.817-6.188-13.817-13.818
	s6.187-13.817,13.817-13.817s13.811,6.187,13.811,13.817S990.269,273.238,982.638,273.238L982.638,273.238z M982.638,267.26
	c-4.333,0-7.839-3.514-7.839-7.84c0-4.332,3.506-7.84,7.839-7.84c4.326,0,7.84,3.508,7.84,7.84
	C990.478,263.746,986.964,267.26,982.638,267.26L982.638,267.26z M950.231,263.934h0.576h13.818
	c-0.361-1.444-0.556-2.958-0.556-4.514c0-10.256,8.312-18.561,18.567-18.561c8.812,0,16.186,6.139,18.089,14.373v-58.541
	c0-4.354-3.563-7.909-7.916-7.909c-10.771,0-21.547,0-32.323,0c-2.014,0-4.11,1.854-6.131,4.743h6.367
	c-1.104,0.576-2.958,3.402-3.527,4.34c-1.986,3.291-3.597,7.02-4.979,10.596c-1.458,3.798-2.743,7.721-3.791,11.65l-0.035,0.146
	h-4.902c-0.743,2.979-1.167,5.361-1.167,6.617v17.213h12.957c1.146,0,2.083,0.938,2.083,2.084c0,1.146-0.937,2.083-2.083,2.083
	h-0.784h-12.173h-0.34h-1.806c-1.735,0-3.159,1.423-3.159,3.166v9.347c0,1.736,1.424,3.166,3.159,3.166H950.231z M946.072,229.34
	h3.992c0.383,0,0.695,0.313,0.695,0.695v9.915c0,0.382-0.313,0.694-0.695,0.694h-3.992V229.34z M991.228,215.258
	c0-8.665,0-9.9,0-18.566c0-1.729-1.431-3.166-3.16-3.166c-10.776,0-9.256,0-20.025,0c-4.257,0-9.756,17.066-9.756,23.441
	c0,9.388-0.375,10.693,2.458,10.693c2.882,0,5.694,0,8.479,0c2.298,0,5.527-7.381,8.492-7.381c2.826,0,7.187-0.049,9.61-0.049
	C990.38,220.23,991.228,219.16,991.228,215.258L991.228,215.258z M1042.479,248.255h2.242c-0.402,0.507-0.777,1.034-1.125,1.583
	C1043.256,249.289,1042.881,248.762,1042.479,248.255L1042.479,248.255z M1072.912,248.255h103.829
	c-2.431,3.069-3.889,6.943-3.889,11.165c0,1.556,0.201,3.069,0.569,4.514h-97.197c0.375-1.444,0.576-2.958,0.576-4.514
	C1076.801,255.198,1075.343,251.324,1072.912,248.255L1072.912,248.255z M1204.933,248.255h2.242
	c-0.402,0.507-0.777,1.034-1.125,1.583C1205.71,249.289,1205.335,248.762,1204.933,248.255L1204.933,248.255z M1235.366,248.255
	h2.243c-0.403,0.507-0.777,1.034-1.118,1.583C1236.145,249.289,1235.77,248.762,1235.366,248.255L1235.366,248.255z
	 M1265.801,248.255h6.68c1.909,0,3.472,1.563,3.472,3.472v8.735c0,1.909-1.563,3.472-3.472,3.472h-3.361
	c0.368-1.444,0.57-2.958,0.57-4.514C1269.689,255.198,1268.23,251.324,1265.801,248.255L1265.801,248.255z"/>
<path fill-rule="evenodd" clip-rule="evenodd" fill="#221F20" d="M121.457,263.934h0.576h13.818
	c-0.354-1.444-0.548-2.958-0.548-4.514c0-10.256,8.312-18.561,18.561-18.561c8.812,0,16.192,6.139,18.088,14.373v-58.541
	c0-4.354-3.562-7.909-7.909-7.909c-10.776,0-21.553,0-32.323,0c-2.021,0-4.111,1.854-6.131,4.743h6.367
	c-1.111,0.576-2.958,3.402-3.527,4.34c-1.986,3.291-3.604,7.02-4.979,10.596c-1.465,3.798-2.75,7.721-3.791,11.65l-0.042,0.146
	h-4.902c-0.743,2.979-1.167,5.361-1.167,6.617v17.213h12.957c1.153,0,2.083,0.938,2.083,2.084c0,1.146-0.93,2.083-2.083,2.083
	h-0.777h-12.179h-0.333h-1.805c-1.743,0-3.167,1.423-3.167,3.166v9.347c0,1.736,1.423,3.166,3.167,3.166H121.457z M258.094,262.822
	c-1.881,0-3.402-1.527-3.402-3.402c0-1.881,1.521-3.402,3.402-3.402c1.875,0,3.403,1.521,3.403,3.402
	C261.497,261.295,259.969,262.822,258.094,262.822L258.094,262.822z M258.094,273.238c-7.631,0-13.818-6.188-13.818-13.818
	s6.187-13.817,13.818-13.817c7.631,0,13.818,6.187,13.818,13.817S265.726,273.238,258.094,273.238L258.094,273.238z M258.094,267.26
	c-4.333,0-7.839-3.514-7.839-7.84c0-4.332,3.507-7.84,7.839-7.84c4.326,0,7.84,3.508,7.84,7.84
	C265.934,263.746,262.42,267.26,258.094,267.26L258.094,267.26z M184.422,180.055l12.263,31.69c43.731,0,78.873,0,91.573,0
	c0-18.005,0-6.687,0-11.388h3.937h0.042h0.125h0.104c1.909,0,3.472,1.563,3.472,3.472v0.063v7.638v25.553v0.063
	c0,1.91-1.563,3.473-3.472,3.473h-0.271c-38.69,0-77.387,0-116.077,0c0-17.846,0-35.691,0-53.536c0-3.298-0.292-3.902-3.402-3.902
	c-6.263,0-12.526,0-18.79,0v-2.527v-0.034v-0.028c0-1.909,1.563-3.472,3.472-3.472h0.271h7.402h11.547
	C181.575,177.117,183.422,177.457,184.422,180.055L184.422,180.055z M198.525,215.911h87.664c1.146,0,2.083,0.938,2.083,2.083
	c0,1.146-0.938,2.084-2.083,2.084h-87.664c-1.146,0-2.083-0.938-2.083-2.084C196.441,216.849,197.379,215.911,198.525,215.911
	L198.525,215.911z M176.118,248.255h31.427h37.35c-2.548,3.014-4.09,6.909-4.09,11.165c0,1.563,0.208,3.069,0.597,4.514h-33.906
	c-0.278,1.632-1.708,2.889-3.423,2.889h-24.483c-1.708,0-3.146-1.257-3.423-2.889h-0.048v-0.584V248.255z M271.288,248.255H284.8
	c1.91,0,3.472,1.563,3.472,3.472v8.735c0,1.909-1.562,3.472-3.472,3.472h-10.013c0.389-1.444,0.597-2.951,0.597-4.514
	C275.384,255.164,273.843,251.269,271.288,248.255L271.288,248.255z M153.863,262.822c-1.875,0-3.403-1.527-3.403-3.402
	c0-1.881,1.528-3.402,3.403-3.402c1.881,0,3.402,1.521,3.402,3.402C157.266,261.295,155.745,262.822,153.863,262.822
	L153.863,262.822z M153.863,273.238c-7.631,0-13.818-6.188-13.818-13.818s6.187-13.817,13.818-13.817
	c7.631,0,13.818,6.187,13.818,13.817S161.494,273.238,153.863,273.238L153.863,273.238z M153.863,267.26
	c-4.326,0-7.84-3.514-7.84-7.84c0-4.332,3.514-7.84,7.84-7.84c4.333,0,7.839,3.508,7.839,7.84
	C161.703,263.746,158.196,267.26,153.863,267.26L153.863,267.26z M117.298,229.34h3.993c0.382,0,0.694,0.313,0.694,0.695v9.915
	c0,0.382-0.313,0.694-0.694,0.694h-3.993V229.34z M162.459,215.258c0-8.665,0-9.9,0-18.566c0-1.729-1.438-3.166-3.167-3.166
	c-10.776,0-9.249,0-20.025,0c-4.25,0-9.756,17.066-9.756,23.441c0,9.388-0.375,10.693,2.458,10.693c2.881,0,5.694,0,8.478,0
	c2.306,0,5.527-7.381,8.499-7.381c2.819,0,7.18-0.049,9.61-0.049C161.612,220.23,162.459,219.16,162.459,215.258L162.459,215.258z"
	/>
<path fill-rule="evenodd" clip-rule="evenodd" fill="#221F20" d="M347.968,263.934h0.576h13.818
	c-0.361-1.444-0.556-2.958-0.556-4.514c0-10.256,8.312-18.561,18.567-18.561c8.812,0,16.186,6.139,18.088,14.373v-58.541
	c0-4.354-3.562-7.909-7.916-7.909c-10.77,0-21.546,0-32.323,0c-2.014,0-4.111,1.854-6.131,4.743h6.367
	c-1.104,0.576-2.958,3.402-3.527,4.34c-1.986,3.291-3.597,7.02-4.979,10.596c-1.458,3.798-2.743,7.721-3.792,11.65l-0.042,0.146
	h-4.896c-0.743,2.979-1.167,5.361-1.167,6.617v17.213h12.957c1.146,0,2.083,0.938,2.083,2.084c0,1.146-0.937,2.083-2.083,2.083
	h-0.785h-12.172h-0.34h-1.806c-1.736,0-3.159,1.423-3.159,3.166v9.347c0,1.736,1.423,3.166,3.159,3.166H347.968z M426.119,262.822
	c-1.882,0-3.402-1.527-3.402-3.402c0-1.881,1.521-3.402,3.402-3.402c1.875,0,3.402,1.521,3.402,3.402
	C429.521,261.295,427.993,262.822,426.119,262.822L426.119,262.822z M426.119,273.238c-7.631,0-13.818-6.188-13.818-13.818
	s6.187-13.817,13.818-13.817s13.811,6.187,13.811,13.817S433.75,273.238,426.119,273.238L426.119,273.238z M426.119,267.26
	c-4.333,0-7.839-3.514-7.839-7.84c0-4.332,3.506-7.84,7.839-7.84c4.326,0,7.839,3.508,7.839,7.84
	C433.958,263.746,430.444,267.26,426.119,267.26L426.119,267.26z M545.473,262.822c-1.881,0-3.402-1.527-3.402-3.402
	c0-1.881,1.521-3.402,3.402-3.402c1.875,0,3.402,1.521,3.402,3.402C548.875,261.295,547.348,262.822,545.473,262.822
	L545.473,262.822z M545.473,273.238c-7.631,0-13.818-6.188-13.818-13.818s6.187-13.817,13.818-13.817
	c7.631,0,13.811,6.187,13.811,13.817S553.104,273.238,545.473,273.238L545.473,273.238z M545.473,267.26
	c-4.333,0-7.839-3.514-7.839-7.84c0-4.332,3.507-7.84,7.839-7.84c4.326,0,7.839,3.508,7.839,7.84
	C553.313,263.746,549.799,267.26,545.473,267.26L545.473,267.26z M423.459,177.117h12.811c0.077-1.813,1.563-3.271,3.382-3.319l0,0
	c0.028,0,0.056,0,0.083,0h0.007h21.157l0,0c0.035,0,0.063,0,0.09,0l0,0c1.819,0.049,3.298,1.507,3.381,3.319h16.221
	c0.083-1.84,1.611-3.319,3.465-3.319h21.164c1.861,0,3.389,1.479,3.472,3.319h16.22c0.083-1.84,1.611-3.319,3.465-3.319h21.171
	c1.854,0,3.381,1.479,3.465,3.319h12.811c11.457,0,20.831,9.373,20.831,20.83v21.838c0,11.457-9.374,20.832-20.831,20.832H423.459
	c-11.457,0-20.831-9.375-20.831-20.832v-21.838C402.628,186.49,412.002,177.117,423.459,177.117L423.459,177.117z M434.548,191.066
	h115.438c1.146,0,2.083,0.938,2.083,2.084c0,1.145-0.938,2.082-2.083,2.082H434.548c-1.146,0-2.083-0.938-2.083-2.082
	C432.465,192.004,433.402,191.066,434.548,191.066L434.548,191.066z M434.548,209.1h115.438c1.146,0,2.083,0.93,2.083,2.083
	c0,1.146-0.938,2.083-2.083,2.083H434.548c-1.146,0-2.083-0.938-2.083-2.083C432.465,210.029,433.402,209.1,434.548,209.1
	L434.548,209.1z M402.628,248.255h9.395c-2.43,3.069-3.889,6.943-3.889,11.165c0,1.556,0.202,3.069,0.569,4.514h-6.076V248.255z
	 M440.214,248.255h60.729c-2.438,3.069-3.889,6.943-3.889,11.165c0,1.556,0.194,3.069,0.569,4.514H484.57
	c-0.278,1.632-1.708,2.889-3.423,2.889h-23.9c-1.715,0-3.146-1.257-3.423-2.889h-10.297c0.375-1.444,0.569-2.958,0.569-4.514
	C444.096,255.198,442.645,251.324,440.214,248.255L440.214,248.255z M529.128,248.255h2.25c-0.402,0.507-0.777,1.034-1.125,1.583
	C529.906,249.289,529.531,248.762,529.128,248.255L529.128,248.255z M559.569,248.255h15.311c1.91,0,3.472,1.563,3.472,3.472v8.735
	c0,1.909-1.562,3.472-3.472,3.472h-11.999c0.375-1.444,0.57-2.958,0.57-4.514C563.451,255.198,561.999,251.324,559.569,248.255
	L559.569,248.255z M515.039,262.822c-1.881,0-3.402-1.527-3.402-3.402c0-1.881,1.521-3.402,3.402-3.402
	c1.875,0,3.396,1.521,3.396,3.402C518.435,261.295,516.914,262.822,515.039,262.822L515.039,262.822z M515.039,273.238
	c-7.631,0-13.818-6.188-13.818-13.818s6.187-13.817,13.818-13.817c7.625,0,13.811,6.187,13.811,13.817
	S522.664,273.238,515.039,273.238L515.039,273.238z M515.039,267.26c-4.333,0-7.839-3.514-7.839-7.84c0-4.332,3.507-7.84,7.839-7.84
	c4.326,0,7.833,3.508,7.833,7.84C522.872,263.746,519.365,267.26,515.039,267.26L515.039,267.26z M380.374,262.822
	c-1.882,0-3.402-1.527-3.402-3.402c0-1.881,1.521-3.402,3.402-3.402c1.875,0,3.396,1.521,3.396,3.402
	C383.769,261.295,382.249,262.822,380.374,262.822L380.374,262.822z M380.374,273.238c-7.631,0-13.818-6.188-13.818-13.818
	s6.187-13.817,13.818-13.817c7.631,0,13.811,6.187,13.811,13.817S388.005,273.238,380.374,273.238L380.374,273.238z M380.374,267.26
	c-4.333,0-7.839-3.514-7.839-7.84c0-4.332,3.507-7.84,7.839-7.84c4.326,0,7.839,3.508,7.839,7.84
	C388.213,263.746,384.7,267.26,380.374,267.26L380.374,267.26z M343.809,229.34h3.985c0.382,0,0.694,0.313,0.694,0.695v9.915
	c0,0.382-0.313,0.694-0.694,0.694h-3.985V229.34z M388.963,215.258c0-8.665,0-9.9,0-18.566c0-1.729-1.43-3.166-3.159-3.166
	c-10.776,0-9.256,0-20.025,0c-4.256,0-9.763,17.066-9.763,23.441c0,9.388-0.368,10.693,2.465,10.693c2.881,0,5.694,0,8.478,0
	c2.298,0,5.527-7.381,8.492-7.381c2.826,0,7.187-0.049,9.61-0.049C388.116,220.23,388.963,219.16,388.963,215.258L388.963,215.258z"
	/>
<path fill-rule="evenodd" clip-rule="evenodd" fill="#221F20" d="M643.1,263.934h0.576h13.818c-0.361-1.444-0.556-2.958-0.556-4.514
	c0-10.256,8.312-18.561,18.567-18.561c8.812,0,16.186,6.139,18.088,14.373v-58.541c0-4.354-3.562-7.909-7.916-7.909
	c-10.77,0-21.546,0-32.323,0c-2.013,0-4.11,1.854-6.131,4.743h6.367c-1.104,0.576-2.958,3.402-3.527,4.34
	c-1.986,3.291-3.597,7.02-4.979,10.596c-1.458,3.798-2.743,7.721-3.792,11.65l-0.035,0.146h-4.902
	c-0.743,2.979-1.167,5.361-1.167,6.617v17.213h12.957c1.146,0,2.083,0.938,2.083,2.084c0,1.146-0.938,2.083-2.083,2.083h-0.785
	h-12.172h-0.34h-1.806c-1.736,0-3.159,1.423-3.159,3.166v9.347c0,1.736,1.423,3.166,3.159,3.166H643.1z M701.231,173.798h177.085
	c1.909,0,3.472,1.563,3.472,3.472v60.709c0,1.909-1.563,3.472-3.472,3.472H697.76V177.27
	C697.76,175.36,699.323,173.798,701.231,173.798L701.231,173.798z M723.806,180.373h131.937c1.146,0,2.083,0.938,2.083,2.084
	c0,1.146-0.938,2.082-2.083,2.082H723.806c-1.146,0-2.083-0.937-2.083-2.082C721.723,181.311,722.66,180.373,723.806,180.373
	L723.806,180.373z M723.806,189.928h131.937c1.146,0,2.083,0.931,2.083,2.084c0,1.145-0.938,2.082-2.083,2.082H723.806
	c-1.146,0-2.083-0.938-2.083-2.082C721.723,190.858,722.66,189.928,723.806,189.928L723.806,189.928z M723.806,199.476h131.937
	c1.146,0,2.083,0.938,2.083,2.083c0,1.152-0.938,2.083-2.083,2.083H723.806c-1.146,0-2.083-0.931-2.083-2.083
	C721.723,200.413,722.66,199.476,723.806,199.476L723.806,199.476z M723.806,209.029h131.937c1.146,0,2.083,0.938,2.083,2.084
	c0,1.152-0.938,2.083-2.083,2.083H723.806c-1.146,0-2.083-0.931-2.083-2.083C721.723,209.967,722.66,209.029,723.806,209.029
	L723.806,209.029z M723.806,218.584h131.937c1.146,0,2.083,0.938,2.083,2.084c0,1.146-0.938,2.082-2.083,2.082H723.806
	c-1.146,0-2.083-0.937-2.083-2.082C721.723,219.521,722.66,218.584,723.806,218.584L723.806,218.584z M721.25,262.822
	c-1.881,0-3.402-1.527-3.402-3.402c0-1.881,1.521-3.402,3.402-3.402c1.875,0,3.402,1.521,3.402,3.402
	C724.652,261.295,723.125,262.822,721.25,262.822L721.25,262.822z M721.25,273.238c-7.631,0-13.817-6.188-13.817-13.818
	s6.187-13.817,13.817-13.817s13.812,6.187,13.812,13.817S728.881,273.238,721.25,273.238L721.25,273.238z M721.25,267.26
	c-4.332,0-7.839-3.514-7.839-7.84c0-4.332,3.507-7.84,7.839-7.84c4.326,0,7.84,3.508,7.84,7.84
	C729.09,263.746,725.576,267.26,721.25,267.26L721.25,267.26z M840.605,262.822c-1.882,0-3.402-1.527-3.402-3.402
	c0-1.881,1.521-3.402,3.402-3.402c1.874,0,3.402,1.521,3.402,3.402C844.008,261.295,842.479,262.822,840.605,262.822
	L840.605,262.822z M840.605,273.238c-7.632,0-13.818-6.188-13.818-13.818s6.187-13.817,13.818-13.817
	c7.631,0,13.811,6.187,13.811,13.817S848.236,273.238,840.605,273.238L840.605,273.238z M840.605,267.26
	c-4.333,0-7.84-3.514-7.84-7.84c0-4.332,3.507-7.84,7.84-7.84c4.325,0,7.839,3.508,7.839,7.84
	C848.444,263.746,844.931,267.26,840.605,267.26L840.605,267.26z M697.76,248.255h9.395c-2.431,3.069-3.889,6.943-3.889,11.165
	c0,1.556,0.201,3.069,0.569,4.514h-6.076V248.255z M735.346,248.255h60.729c-2.438,3.069-3.889,6.943-3.889,11.165
	c0,1.556,0.194,3.069,0.569,4.514h-13.054c-0.278,1.632-1.708,2.889-3.423,2.889h-23.9c-1.715,0-3.146-1.257-3.423-2.889h-10.298
	c0.375-1.444,0.569-2.958,0.569-4.514C739.228,255.198,737.776,251.324,735.346,248.255L735.346,248.255z M824.26,248.255h2.25
	c-0.403,0.507-0.778,1.034-1.125,1.583C825.037,249.289,824.662,248.762,824.26,248.255L824.26,248.255z M854.7,248.255h15.312
	c1.909,0,3.472,1.563,3.472,3.472v8.735c0,1.909-1.563,3.472-3.472,3.472h-11.999c0.375-1.444,0.569-2.958,0.569-4.514
	C858.582,255.198,857.131,251.324,854.7,248.255L854.7,248.255z M810.171,262.822c-1.882,0-3.402-1.527-3.402-3.402
	c0-1.881,1.521-3.402,3.402-3.402c1.875,0,3.396,1.521,3.396,3.402C813.566,261.295,812.046,262.822,810.171,262.822
	L810.171,262.822z M810.171,273.238c-7.631,0-13.818-6.188-13.818-13.818s6.188-13.817,13.818-13.817
	c7.624,0,13.811,6.187,13.811,13.817S817.795,273.238,810.171,273.238L810.171,273.238z M810.171,267.26
	c-4.333,0-7.839-3.514-7.839-7.84c0-4.332,3.506-7.84,7.839-7.84c4.326,0,7.833,3.508,7.833,7.84
	C818.004,263.746,814.497,267.26,810.171,267.26L810.171,267.26z M675.506,262.822c-1.881,0-3.402-1.527-3.402-3.402
	c0-1.881,1.521-3.402,3.402-3.402c1.875,0,3.396,1.521,3.396,3.402C678.901,261.295,677.381,262.822,675.506,262.822
	L675.506,262.822z M675.506,273.238c-7.631,0-13.818-6.188-13.818-13.818s6.187-13.817,13.818-13.817
	c7.631,0,13.811,6.187,13.811,13.817S683.137,273.238,675.506,273.238L675.506,273.238z M675.506,267.26
	c-4.333,0-7.839-3.514-7.839-7.84c0-4.332,3.507-7.84,7.839-7.84c4.326,0,7.839,3.508,7.839,7.84
	C683.345,263.746,679.832,267.26,675.506,267.26L675.506,267.26z M638.94,229.34h3.993c0.382,0,0.694,0.313,0.694,0.695v9.915
	c0,0.382-0.313,0.694-0.694,0.694h-3.993V229.34z M684.095,215.258c0-8.665,0-9.9,0-18.566c0-1.729-1.43-3.166-3.159-3.166
	c-10.777,0-9.256,0-20.025,0c-4.257,0-9.763,17.066-9.763,23.441c0,9.388-0.368,10.693,2.465,10.693c2.881,0,5.693,0,8.478,0
	c2.298,0,5.527-7.381,8.492-7.381c2.826,0,7.187-0.049,9.61-0.049C683.248,220.23,684.095,219.16,684.095,215.258L684.095,215.258z"
	/>
<path fill-rule="evenodd" clip-rule="evenodd" fill="#221F20" d="M125.297,528.111h0.569h13.825
	c-0.361-1.445-0.555-2.951-0.555-4.506c0-10.256,8.312-18.568,18.56-18.568c8.812,0,16.193,6.139,18.088,14.373v-58.534
	c0-4.354-3.562-7.916-7.909-7.916c-10.777,0-21.553,0-32.323,0c-2.014,0-4.111,1.854-6.131,4.75h6.367
	c-1.111,0.576-2.958,3.396-3.527,4.34c-1.986,3.284-3.604,7.013-4.979,10.596c-1.458,3.791-2.75,7.722-3.792,11.651l-0.042,0.146
	h-4.902c-0.743,2.979-1.167,5.36-1.167,6.617v17.213h12.957c1.153,0,2.083,0.93,2.083,2.082c0,1.146-0.93,2.084-2.083,2.084h-0.778
	h-12.179h-0.333h-1.806c-1.743,0-3.166,1.424-3.166,3.16v9.352c0,1.736,1.423,3.16,3.166,3.16H125.297z M233.41,504.426h52.515
	c1.909,0,3.472-1.563,3.472-3.471v-0.264v-3.736v-13.783c0-1.909-1.563-3.472-3.472-3.472h-1.583v17.255h-31.33L233.41,504.426z
	 M184.117,478.729l3.611,9.52l2.875-1.09c0.056,0.174,0.118,0.34,0.181,0.514c0.014,0.042,0.021,0.076,0.042,0.111
	c0.431,1.034,0.903,2.11,1.423,3.201l-3.042,1.159l4.611,12.157c0.063,0.168,0.104,0.334,0.118,0.5h-4.389l-5.43-14.324v14.324
	h-4.167v-27.114C179.95,475.367,182.52,474.507,184.117,478.729L184.117,478.729z M206.142,451.176l39.335-14.998l23.171,1.694
	c4.041,3.291,7.874,9.395,10.666,16.123c2.396,6.874,3.597,13.984,2.771,19.123l-16.165,16.686l0,0l-39.336,14.997l0,0
	l-23.171-1.693c-4.041-3.291-7.874-9.395-10.666-16.123c-2.396-6.874-3.597-13.984-2.771-19.123L206.142,451.176z M248.811,445.579
	l15.387,34.572c0.472,1.049-0.007,2.285-1.055,2.757c-1.048,0.466-2.285-0.014-2.75-1.063l-15.387-34.572
	c-0.465-1.049,0.007-2.284,1.055-2.75C247.109,444.059,248.346,444.531,248.811,445.579L248.811,445.579z M213.593,458.758
	l15.387,34.58c0.465,1.049-0.007,2.284-1.055,2.75c-1.049,0.465-2.285-0.008-2.75-1.056l-15.387-34.58
	c-0.465-1.048,0.007-2.284,1.056-2.749C211.891,457.237,213.127,457.71,213.593,458.758L213.593,458.758z M261.927,527
	c-1.875,0-3.402-1.52-3.402-3.395c0-1.883,1.528-3.402,3.402-3.402c1.882,0,3.402,1.52,3.402,3.402
	C265.33,525.48,263.809,527,261.927,527L261.927,527z M261.927,537.416c-7.631,0-13.818-6.18-13.818-13.811
	c0-7.633,6.187-13.818,13.818-13.818c7.631,0,13.818,6.186,13.818,13.818C275.745,531.236,269.559,537.416,261.927,537.416
	L261.927,537.416z M261.927,531.443c-4.326,0-7.839-3.514-7.839-7.838c0-4.334,3.514-7.84,7.839-7.84
	c4.326,0,7.839,3.506,7.839,7.84C269.767,527.93,266.253,531.443,261.927,531.443L261.927,531.443z M179.95,512.439h31.427h37.357
	c-2.555,3.006-4.097,6.908-4.097,11.166c0,1.555,0.208,3.068,0.597,4.506h-33.906c-0.277,1.639-1.708,2.889-3.423,2.889h-24.483
	c-1.708,0-3.139-1.25-3.423-2.889h-0.049v-0.584V512.439z M275.12,512.439h13.513c1.909,0,3.472,1.563,3.472,3.473v8.727
	c0,1.91-1.563,3.473-3.472,3.473H278.62c0.389-1.438,0.597-2.951,0.597-4.506C279.217,519.348,277.676,515.445,275.12,512.439
	L275.12,512.439z M157.696,527c-1.875,0-3.402-1.52-3.402-3.395c0-1.883,1.528-3.402,3.402-3.402c1.882,0,3.402,1.52,3.402,3.402
	C161.098,525.48,159.578,527,157.696,527L157.696,527z M157.696,537.416c-7.631,0-13.811-6.18-13.811-13.811
	c0-7.633,6.18-13.818,13.811-13.818c7.631,0,13.818,6.186,13.818,13.818C171.514,531.236,165.327,537.416,157.696,537.416
	L157.696,537.416z M157.696,531.443c-4.326,0-7.839-3.514-7.839-7.838c0-4.334,3.514-7.84,7.839-7.84
	c4.333,0,7.839,3.506,7.839,7.84C165.535,527.93,162.029,531.443,157.696,531.443L157.696,531.443z M121.13,493.525h3.993
	c0.382,0,0.694,0.313,0.694,0.694v9.907c0,0.383-0.313,0.695-0.694,0.695h-3.993V493.525z M166.292,479.443
	c0-8.666,0-9.901,0-18.567c0-1.729-1.438-3.166-3.167-3.166c-10.77,0-9.249,0-20.025,0c-4.25,0-9.756,17.067-9.756,23.435
	c0,9.395-0.375,10.7,2.458,10.7c2.888,0,5.694,0,8.478,0c2.305,0,5.527-7.381,8.499-7.381c2.819,0,7.187-0.049,9.61-0.049
	C165.445,484.415,166.292,483.346,166.292,479.443L166.292,479.443z"/>
<path fill-rule="evenodd" clip-rule="evenodd" fill="#221F20" d="M352.12,528.111h0.576h13.818
	c-0.361-1.445-0.556-2.951-0.556-4.506c0-10.256,8.312-18.568,18.567-18.568c8.812,0,16.186,6.139,18.088,14.373v-58.534
	c0-4.354-3.562-7.916-7.916-7.916c-10.77,0-21.546,0-32.323,0c-2.013,0-4.11,1.854-6.131,4.75h6.374
	c-1.111,0.569-2.965,3.396-3.534,4.34c-1.979,3.284-3.597,7.013-4.972,10.596c-1.465,3.791-2.75,7.714-3.798,11.651l-0.035,0.146
	h-4.902c-0.743,2.979-1.167,5.361-1.167,6.618v17.205h12.957c1.146,0,2.083,0.938,2.083,2.084c0,1.152-0.937,2.082-2.083,2.082
	h-0.785h-12.172h-0.34h-1.798c-1.743,0-3.167,1.432-3.167,3.168v9.346c0,1.742,1.423,3.166,3.167,3.166H352.12z M406.78,439.129
	h-32.552c-1.909,0-3.472,1.563-3.472,3.472v6.443h36.023v63.388v15.68v1h6.368c-0.556-1.736-0.861-3.59-0.861-5.506
	c0-9.938,8.055-17.984,17.984-17.984c9.929,0,17.984,8.047,17.984,17.984c0,1.916-0.305,3.77-0.861,5.506h10.916
	c0.576,1.117,1.75,1.889,3.09,1.889h23.9c1.34,0,2.514-0.771,3.09-1.889h13.679c-0.555-1.736-0.861-3.59-0.861-5.506
	c0-9.938,8.055-17.984,17.984-17.984c6.402,0,12.034,3.354,15.214,8.395c3.187-5.041,8.812-8.395,15.22-8.395
	c9.93,0,17.984,8.047,17.984,17.984c0,1.916-0.306,3.77-0.861,5.506h4.618h7.666c1.909,0,3.472-1.563,3.472-3.473v-1v-6.699v-2.035
	v-65.604v-7.7c0-1.909-1.563-3.472-3.472-3.472h-0.271h-7.395H406.78z M430.271,527c-1.882,0-3.402-1.52-3.402-3.395
	c0-1.883,1.521-3.402,3.402-3.402c1.875,0,3.402,1.52,3.402,3.402C433.673,525.48,432.146,527,430.271,527L430.271,527z
	 M430.271,537.416c-7.631,0-13.818-6.188-13.818-13.811c0-7.633,6.187-13.818,13.818-13.818c7.631,0,13.818,6.186,13.818,13.818
	C444.089,531.229,437.902,537.416,430.271,537.416L430.271,537.416z M430.271,531.438c-4.333,0-7.839-3.508-7.839-7.832
	c0-4.334,3.506-7.84,7.839-7.84c4.326,0,7.839,3.506,7.839,7.84C438.11,527.93,434.597,531.438,430.271,531.438L430.271,531.438z
	 M549.625,527c-1.881,0-3.402-1.52-3.402-3.395c0-1.883,1.521-3.402,3.402-3.402c1.875,0,3.402,1.52,3.402,3.402
	C553.028,525.48,551.5,527,549.625,527L549.625,527z M549.625,537.416c-7.631,0-13.818-6.188-13.818-13.811
	c0-7.633,6.187-13.818,13.818-13.818c7.631,0,13.818,6.186,13.818,13.818C563.443,531.229,557.257,537.416,549.625,537.416
	L549.625,537.416z M549.625,531.438c-4.333,0-7.839-3.508-7.839-7.832c0-4.334,3.507-7.84,7.839-7.84
	c4.326,0,7.839,3.506,7.839,7.84C557.465,527.93,553.952,531.438,549.625,531.438L549.625,531.438z M519.191,527
	c-1.881,0-3.402-1.52-3.402-3.395c0-1.883,1.521-3.402,3.402-3.402c1.875,0,3.402,1.52,3.402,3.402
	C522.594,525.48,521.066,527,519.191,527L519.191,527z M519.191,537.416c-7.631,0-13.818-6.188-13.818-13.811
	c0-7.633,6.187-13.818,13.818-13.818c7.631,0,13.811,6.186,13.811,13.818C533.002,531.229,526.823,537.416,519.191,537.416
	L519.191,537.416z M519.191,531.438c-4.333,0-7.839-3.508-7.839-7.832c0-4.334,3.507-7.84,7.839-7.84
	c4.326,0,7.839,3.506,7.839,7.84C527.031,527.93,523.518,531.438,519.191,531.438L519.191,531.438z M535.079,452.96h27.629v20.151
	h-27.629V452.96z M499.375,452.96h27.629v20.151h-27.629V452.96z M455.282,452.96h36.017v59.472h-36.017V452.96z M384.526,527
	c-1.882,0-3.402-1.52-3.402-3.395c0-1.883,1.521-3.402,3.402-3.402c1.875,0,3.402,1.52,3.402,3.402
	C387.928,525.48,386.401,527,384.526,527L384.526,527z M384.526,537.416c-7.631,0-13.818-6.188-13.818-13.811
	c0-7.633,6.187-13.818,13.818-13.818c7.631,0,13.811,6.186,13.811,13.818C398.337,531.229,392.157,537.416,384.526,537.416
	L384.526,537.416z M384.526,531.438c-4.333,0-7.839-3.508-7.839-7.832c0-4.334,3.507-7.84,7.839-7.84
	c4.326,0,7.839,3.506,7.839,7.84C392.365,527.93,388.852,531.438,384.526,531.438L384.526,531.438z M347.96,493.525h3.993
	c0.382,0,0.694,0.313,0.694,0.694v9.907c0,0.383-0.312,0.695-0.694,0.695h-3.993V493.525z M393.115,479.443
	c0-8.666,0-9.901,0-18.567c0-1.735-1.43-3.166-3.159-3.166c-10.776,0-9.249,0-20.026,0c-4.256,0-9.755,17.067-9.755,23.435
	c0,9.395-0.375,10.7,2.458,10.7c2.881,0,5.694,0,8.478,0c2.298,0,5.527-7.381,8.492-7.381c2.826,0,7.187-0.049,9.61-0.049
	C392.268,484.415,393.115,483.346,393.115,479.443L393.115,479.443z"/>
<path fill-rule="evenodd" clip-rule="evenodd" fill="#221F20" d="M644.968,528.111h0.576h13.818
	c-0.361-1.445-0.556-2.951-0.556-4.506c0-10.256,8.312-18.568,18.568-18.568c8.812,0,16.186,6.139,18.088,14.373v-58.534
	c0-4.354-3.562-7.916-7.916-7.916c-10.777,0-21.546,0-32.323,0c-2.014,0-4.111,1.854-6.131,4.75h6.367
	c-1.104,0.569-2.958,3.396-3.527,4.34c-1.986,3.284-3.597,7.013-4.979,10.596c-1.458,3.791-2.743,7.714-3.791,11.651l-0.042,0.146
	h-4.895c-0.75,2.979-1.173,5.361-1.173,6.618v17.205h12.963c1.146,0,2.083,0.938,2.083,2.084c0,1.152-0.938,2.082-2.083,2.082
	h-0.785h-12.179h-0.333h-1.806c-1.736,0-3.159,1.432-3.159,3.168v9.346c0,1.742,1.423,3.166,3.159,3.166H644.968z M699.628,504.795
	h140.977h2.958h22.761h13.596v-6.492c0-1.91-1.563-3.473-3.472-3.473h-4.757l-24.656-29.871v-24.345
	c0-1.909-1.563-3.472-3.472-3.472H703.1c-1.909,0-3.471,1.563-3.471,3.472V504.795z M719.91,447.642v46.661
	c0,1.146-0.938,2.083-2.083,2.083c-1.152,0-2.083-0.938-2.083-2.083v-46.661c0-1.153,0.931-2.083,2.083-2.083
	C718.973,445.559,719.91,446.488,719.91,447.642L719.91,447.642z M748.323,447.642v46.661c0,1.146-0.937,2.083-2.083,2.083
	c-1.146,0-2.083-0.938-2.083-2.083v-46.661c0-1.153,0.938-2.083,2.083-2.083C747.387,445.559,748.323,446.488,748.323,447.642
	L748.323,447.642z M776.737,447.642v46.661c0,1.146-0.938,2.083-2.083,2.083c-1.146,0-2.083-0.938-2.083-2.083v-46.661
	c0-1.153,0.937-2.083,2.083-2.083C775.8,445.559,776.737,446.488,776.737,447.642L776.737,447.642z M805.15,447.642v46.661
	c0,1.146-0.938,2.083-2.083,2.083s-2.083-0.938-2.083-2.083v-46.661c0-1.153,0.938-2.083,2.083-2.083S805.15,446.488,805.15,447.642
	L805.15,447.642z M833.564,447.642v46.661c0,1.146-0.938,2.083-2.083,2.083s-2.083-0.938-2.083-2.083v-46.661
	c0-1.153,0.938-2.083,2.083-2.083S833.564,446.488,833.564,447.642L833.564,447.642z M723.118,527c-1.882,0-3.402-1.52-3.402-3.395
	c0-1.883,1.521-3.402,3.402-3.402c1.875,0,3.396,1.52,3.396,3.402C726.514,525.48,724.993,527,723.118,527L723.118,527z
	 M723.118,537.416c-7.631,0-13.817-6.188-13.817-13.811c0-7.633,6.187-13.818,13.817-13.818s13.811,6.186,13.811,13.818
	C736.929,531.229,730.749,537.416,723.118,537.416L723.118,537.416z M723.118,531.438c-4.333,0-7.839-3.508-7.839-7.832
	c0-4.334,3.506-7.84,7.839-7.84c4.326,0,7.839,3.506,7.839,7.84C730.957,527.93,727.444,531.438,723.118,531.438L723.118,531.438z
	 M842.473,527c-1.882,0-3.402-1.52-3.402-3.395c0-1.883,1.521-3.402,3.402-3.402c1.875,0,3.396,1.52,3.396,3.402
	C845.868,525.48,844.348,527,842.473,527L842.473,527z M842.473,537.416c-7.631,0-13.817-6.188-13.817-13.811
	c0-7.633,6.187-13.818,13.817-13.818c7.632,0,13.812,6.186,13.812,13.818C856.284,531.229,850.104,537.416,842.473,537.416
	L842.473,537.416z M842.473,531.438c-4.332,0-7.839-3.508-7.839-7.832c0-4.334,3.507-7.84,7.839-7.84c4.326,0,7.84,3.506,7.84,7.84
	C850.313,527.93,846.799,531.438,842.473,531.438L842.473,531.438z M699.628,512.432h9.394c-2.438,3.07-3.889,6.951-3.889,11.174
	c0,1.555,0.202,3.068,0.569,4.506h-6.075V512.432z M737.207,512.432h60.736c-2.438,3.07-3.889,6.951-3.889,11.174
	c0,1.555,0.194,3.068,0.569,4.506H781.57c-0.278,1.639-1.708,2.889-3.424,2.889h-23.899c-1.716,0-3.146-1.25-3.424-2.889h-10.297
	c0.375-1.438,0.569-2.951,0.569-4.506C741.096,519.383,739.645,515.502,737.207,512.432L737.207,512.432z M826.127,512.432h2.25
	c-0.402,0.508-0.777,1.043-1.125,1.59C826.905,513.475,826.53,512.939,826.127,512.432L826.127,512.432z M856.562,512.432h15.317
	c1.91,0,3.473,1.563,3.473,3.473v8.734c0,1.91-1.563,3.473-3.473,3.473h-11.998c0.375-1.438,0.569-2.951,0.569-4.506
	C860.45,519.383,858.999,515.502,856.562,512.432L856.562,512.432z M812.032,527c-1.875,0-3.396-1.52-3.396-3.395
	c0-1.883,1.521-3.402,3.396-3.402c1.881,0,3.402,1.52,3.402,3.402C815.435,525.48,813.913,527,812.032,527L812.032,527z
	 M812.032,537.416c-7.624,0-13.812-6.188-13.812-13.811c0-7.633,6.188-13.818,13.812-13.818c7.631,0,13.817,6.186,13.817,13.818
	C825.85,531.229,819.663,537.416,812.032,537.416L812.032,537.416z M812.032,531.438c-4.326,0-7.833-3.508-7.833-7.832
	c0-4.334,3.507-7.84,7.833-7.84c4.333,0,7.839,3.506,7.839,7.84C819.871,527.93,816.365,531.438,812.032,531.438L812.032,531.438z
	 M677.374,527c-1.882,0-3.403-1.52-3.403-3.395c0-1.883,1.521-3.402,3.403-3.402c1.875,0,3.395,1.52,3.395,3.402
	C680.769,525.48,679.249,527,677.374,527L677.374,527z M677.374,537.416c-7.631,0-13.818-6.188-13.818-13.811
	c0-7.633,6.187-13.818,13.818-13.818c7.624,0,13.811,6.186,13.811,13.818C691.185,531.229,684.998,537.416,677.374,537.416
	L677.374,537.416z M677.374,531.438c-4.333,0-7.839-3.508-7.839-7.832c0-4.334,3.506-7.84,7.839-7.84
	c4.326,0,7.833,3.506,7.833,7.84C685.207,527.93,681.7,531.438,677.374,531.438L677.374,531.438z M640.802,493.525h3.992
	c0.382,0,0.695,0.313,0.695,0.694v9.907c0,0.383-0.313,0.695-0.695,0.695h-3.992V493.525z M685.963,479.443
	c0-8.666,0-9.901,0-18.567c0-1.735-1.431-3.166-3.167-3.166c-10.77,0-9.249,0-20.019,0c-4.256,0-9.763,17.067-9.763,23.435
	c0,9.395-0.368,10.7,2.465,10.7c2.881,0,5.694,0,8.478,0c2.298,0,5.527-7.381,8.492-7.381c2.826,0,7.187-0.049,9.61-0.049
	C685.116,484.415,685.963,483.346,685.963,479.443L685.963,479.443z"/>
<path fill-rule="evenodd" clip-rule="evenodd" fill="#221F20" d="M121.457,807.764h0.576h13.818
	c-0.354-1.443-0.548-2.957-0.548-4.512c0-10.25,8.312-18.561,18.561-18.561c8.812,0,16.192,6.137,18.088,14.373v-58.543
	c0-4.346-3.562-7.908-7.909-7.908c-10.776,0-21.553,0-32.323,0c-2.021,0-4.111,1.854-6.131,4.75h6.367
	c-1.111,0.568-2.958,3.395-3.527,4.34c-1.986,3.283-3.604,7.012-4.979,10.588c-1.465,3.799-2.75,7.723-3.791,11.652l-0.042,0.145
	h-4.902c-0.743,2.98-1.167,5.369-1.167,6.625v17.207h12.957c1.153,0,2.083,0.938,2.083,2.082c0,1.146-0.93,2.084-2.083,2.084h-0.777
	h-12.179h-0.333h-1.805c-1.743,0-3.167,1.424-3.167,3.166v9.346c0,1.742,1.423,3.166,3.167,3.166H121.457z M176.118,784.447h119.82
	v-7.318v-0.951v-6.063v-8.332v-8.332c0-1.146-0.931-2.084-2.083-2.084H180.284v-4.574h-4.166v6.658v8.332v8.332v6.063v0.881V784.447
	z M197.331,755.535v4.166h16.22v-4.166H197.331z M197.331,763.867v4.166h16.22v-4.166H197.331z M197.331,772.199v3.979h16.22v-3.979
	H197.331z M193.164,776.178v-3.979h-12.88v3.979H193.164z M193.164,768.033v-4.166h-12.88v4.166H193.164z M193.164,759.701v-4.166
	h-12.88v4.166H193.164z M217.717,755.535v4.166h16.228v-4.166H217.717z M217.717,763.867v4.166h16.228v-4.166H217.717z
	 M217.717,772.199v3.979h16.228v-3.979H217.717z M238.11,755.535v4.166h16.228v-4.166H238.11z M238.11,763.867v4.166h16.228v-4.166
	H238.11z M238.11,772.199v3.979h16.228v-3.979H238.11z M258.504,755.535v4.166h16.227v-4.166H258.504z M258.504,763.867v4.166
	h16.227v-4.166H258.504z M258.504,772.199v3.979h16.227v-3.979H258.504z M278.897,755.535v4.166h12.874v-4.166H278.897z
	 M278.897,763.867v4.166h12.874v-4.166H278.897z M278.897,772.199v3.979h12.874v-3.979H278.897z M258.094,806.654
	c-1.881,0-3.402-1.521-3.402-3.402c0-1.875,1.521-3.404,3.402-3.404c1.875,0,3.403,1.529,3.403,3.404
	C261.497,805.133,259.969,806.654,258.094,806.654L258.094,806.654z M258.094,817.068c-7.631,0-13.818-6.186-13.818-13.816
	c0-7.633,6.187-13.818,13.818-13.818c7.631,0,13.818,6.186,13.818,13.818C271.912,810.883,265.726,817.068,258.094,817.068
	L258.094,817.068z M258.094,811.09c-4.333,0-7.839-3.506-7.839-7.838c0-4.326,3.507-7.84,7.839-7.84c4.326,0,7.84,3.514,7.84,7.84
	C265.934,807.584,262.42,811.09,258.094,811.09L258.094,811.09z M176.118,792.086h31.427h37.35c-2.548,3.014-4.09,6.908-4.09,11.166
	c0,1.561,0.208,3.074,0.597,4.512h-33.906c-0.278,1.633-1.708,2.889-3.423,2.889h-24.483c-1.708,0-3.146-1.256-3.423-2.889h-0.048
	v-0.582V792.086z M271.288,792.086H284.8c1.91,0,3.472,1.563,3.472,3.471v8.736c0,1.908-1.562,3.471-3.472,3.471h-10.013
	c0.389-1.438,0.597-2.951,0.597-4.512C275.384,798.994,273.843,795.1,271.288,792.086L271.288,792.086z M153.863,806.654
	c-1.875,0-3.403-1.521-3.403-3.402c0-1.875,1.528-3.404,3.403-3.404c1.881,0,3.402,1.529,3.402,3.404
	C157.266,805.133,155.745,806.654,153.863,806.654L153.863,806.654z M153.863,817.068c-7.631,0-13.818-6.186-13.818-13.816
	c0-7.633,6.187-13.818,13.818-13.818c7.631,0,13.818,6.186,13.818,13.818C167.681,810.883,161.494,817.068,153.863,817.068
	L153.863,817.068z M153.863,811.09c-4.326,0-7.84-3.506-7.84-7.838c0-4.326,3.514-7.84,7.84-7.84c4.333,0,7.839,3.514,7.839,7.84
	C161.703,807.584,158.196,811.09,153.863,811.09L153.863,811.09z M117.298,773.178h3.993c0.382,0,0.694,0.313,0.694,0.695v9.908
	c0,0.381-0.313,0.693-0.694,0.693h-3.993V773.178z M162.459,759.09c0-8.666,0-9.902,0-18.568c0-1.729-1.438-3.158-3.167-3.158
	c-10.776,0-9.249,0-20.025,0c-4.25,0-9.756,17.066-9.756,23.434c0,9.389-0.375,10.701,2.458,10.701c2.881,0,5.694,0,8.478,0
	c2.306,0,5.527-7.381,8.499-7.381c2.819,0,7.18-0.057,9.61-0.057C161.612,764.061,162.459,762.992,162.459,759.09L162.459,759.09z"
	/>
<path fill-rule="evenodd" clip-rule="evenodd" fill="#221F20" d="M1004.893,512.434h9.395c-2.431,3.068-3.889,6.943-3.889,11.164
	c0,1.557,0.201,3.07,0.569,4.508h-6.075V512.434z M1047.651,504.795h199.547c18.345,0,33.357-15.012,33.357-33.364l0,0
	c0-18.345-15.013-33.357-33.357-33.357h-3.146v-2.576c0-1.909-1.563-3.472-3.472-3.472h-21.157c-1.91,0-3.472,1.563-3.472,3.472
	v2.576h-54.48v-2.576c0-1.909-1.563-3.472-3.472-3.472h-21.157c-1.909,0-3.472,1.563-3.472,3.472v2.576h-54.474v-2.576
	c0-1.909-1.562-3.472-3.472-3.472h-21.157c-1.909,0-3.472,1.563-3.472,3.472v2.576h-3.146c-18.353,0-33.364,15.013-33.364,33.357
	l0,0C1014.287,489.783,1029.299,504.795,1047.651,504.795L1047.651,504.795z M1050.797,465.952h82.574h28.101h54.48h27.489h0.611
	c1.146,0,2.083,0.938,2.083,2.083s-0.938,2.083-2.083,2.083h-0.611h-27.489h-54.48h-28.101h-82.574
	c-1.152,0-2.083-0.938-2.083-2.083S1049.645,465.952,1050.797,465.952L1050.797,465.952z M1050.797,452.336h28.101
	c1.146,0,2.083,0.938,2.083,2.083c0,1.152-0.938,2.083-2.083,2.083h-28.101c-1.152,0-2.083-0.931-2.083-2.083
	C1048.714,453.273,1049.645,452.336,1050.797,452.336L1050.797,452.336z M1133.371,452.336h28.101c1.146,0,2.083,0.938,2.083,2.083
	c0,1.152-0.938,2.083-2.083,2.083h-28.101c-1.146,0-2.083-0.931-2.083-2.083C1131.288,453.273,1132.225,452.336,1133.371,452.336
	L1133.371,452.336z M1215.952,452.336h28.101c1.146,0,2.083,0.938,2.083,2.083c0,1.152-0.938,2.083-2.083,2.083h-28.101
	c-1.153,0-2.083-0.931-2.083-2.083C1213.869,453.273,1214.799,452.336,1215.952,452.336L1215.952,452.336z M1028.383,527
	c-1.882,0-3.402-1.527-3.402-3.402c0-1.881,1.521-3.402,3.402-3.402c1.875,0,3.402,1.521,3.402,3.402
	C1031.785,525.473,1030.258,527,1028.383,527L1028.383,527z M1028.383,537.416c-7.631,0-13.818-6.188-13.818-13.818
	s6.188-13.816,13.818-13.816s13.811,6.186,13.811,13.816S1036.014,537.416,1028.383,537.416L1028.383,537.416z M1028.383,531.438
	c-4.333,0-7.84-3.514-7.84-7.84c0-4.332,3.507-7.838,7.84-7.838c4.326,0,7.839,3.506,7.839,7.838
	C1036.222,527.924,1032.709,531.438,1028.383,531.438L1028.383,531.438z M1058.816,527c-1.882,0-3.402-1.527-3.402-3.402
	c0-1.881,1.521-3.402,3.402-3.402c1.875,0,3.402,1.521,3.402,3.402C1062.219,525.473,1060.691,527,1058.816,527L1058.816,527z
	 M1058.816,537.416c-7.631,0-13.817-6.188-13.817-13.818s6.187-13.816,13.817-13.816c7.632,0,13.818,6.186,13.818,13.816
	S1066.448,537.416,1058.816,537.416L1058.816,537.416z M1058.816,531.438c-4.325,0-7.839-3.514-7.839-7.84
	c0-4.332,3.514-7.838,7.839-7.838c4.326,0,7.84,3.506,7.84,7.838C1066.656,527.924,1063.143,531.438,1058.816,531.438
	L1058.816,531.438z M1190.837,527c-1.882,0-3.402-1.527-3.402-3.402c0-1.881,1.521-3.402,3.402-3.402
	c1.875,0,3.402,1.521,3.402,3.402C1194.239,525.473,1192.712,527,1190.837,527L1190.837,527z M1190.837,537.416
	c-7.632,0-13.818-6.188-13.818-13.818s6.187-13.816,13.818-13.816c7.631,0,13.811,6.186,13.811,13.816
	S1198.468,537.416,1190.837,537.416L1190.837,537.416z M1190.837,531.438c-4.333,0-7.84-3.514-7.84-7.84
	c0-4.332,3.507-7.838,7.84-7.838c4.325,0,7.839,3.506,7.839,7.838C1198.676,527.924,1195.162,531.438,1190.837,531.438
	L1190.837,531.438z M1251.705,527c-1.875,0-3.402-1.527-3.402-3.402c0-1.881,1.527-3.402,3.402-3.402
	c1.881,0,3.402,1.521,3.402,3.402C1255.107,525.473,1253.586,527,1251.705,527L1251.705,527z M1251.705,537.416
	c-7.631,0-13.818-6.188-13.818-13.818s6.188-13.816,13.818-13.816s13.817,6.186,13.817,13.816S1259.336,537.416,1251.705,537.416
	L1251.705,537.416z M1251.705,531.438c-4.326,0-7.84-3.514-7.84-7.84c0-4.332,3.514-7.838,7.84-7.838
	c4.333,0,7.839,3.506,7.839,7.838C1259.544,527.924,1256.038,531.438,1251.705,531.438L1251.705,531.438z M1221.271,527
	c-1.882,0-3.402-1.527-3.402-3.402c0-1.881,1.521-3.402,3.402-3.402c1.875,0,3.402,1.521,3.402,3.402
	C1224.673,525.473,1223.146,527,1221.271,527L1221.271,527z M1221.271,537.416c-7.631,0-13.817-6.188-13.817-13.818
	s6.187-13.816,13.817-13.816s13.818,6.186,13.818,13.816S1228.901,537.416,1221.271,537.416L1221.271,537.416z M1221.271,531.438
	c-4.325,0-7.839-3.514-7.839-7.84c0-4.332,3.514-7.838,7.839-7.838c4.326,0,7.84,3.506,7.84,7.838
	C1229.11,527.924,1225.597,531.438,1221.271,531.438L1221.271,531.438z M1005.087,504.795v-68.874c0-4.867,3.562-8.812,7.964-8.812
	c1.146,0,2.083,1.035,2.083,2.306s-0.937,2.305-2.083,2.305c-2.097,0-3.798,1.882-3.798,4.201v68.874H1005.087z M982.638,527
	c-1.882,0-3.402-1.527-3.402-3.402c0-1.881,1.521-3.402,3.402-3.402c1.875,0,3.396,1.521,3.396,3.402
	C986.033,525.473,984.513,527,982.638,527L982.638,527z M982.638,537.416c-7.631,0-13.817-6.188-13.817-13.818
	s6.187-13.816,13.817-13.816s13.811,6.186,13.811,13.816S990.269,537.416,982.638,537.416L982.638,537.416z M982.638,531.438
	c-4.333,0-7.839-3.514-7.839-7.84c0-4.332,3.506-7.838,7.839-7.838c4.326,0,7.84,3.506,7.84,7.838
	C990.478,527.924,986.964,531.438,982.638,531.438L982.638,531.438z M950.231,528.105h0.576h13.818
	c-0.361-1.445-0.556-2.951-0.556-4.508c0-10.256,8.312-18.561,18.567-18.561c8.812,0,16.186,6.139,18.089,14.375v-58.543
	c0-4.354-3.563-7.908-7.916-7.908c-10.771,0-21.547,0-32.323,0c-2.014,0-4.11,1.847-6.131,4.742h6.367
	c-1.104,0.576-2.958,3.402-3.527,4.34c-1.986,3.291-3.597,7.02-4.979,10.596c-1.458,3.799-2.743,7.722-3.791,11.651l-0.035,0.146
	h-4.902c-0.743,2.979-1.167,5.36-1.167,6.617v17.212h12.957c1.146,0,2.083,0.938,2.083,2.084s-0.937,2.084-2.083,2.084h-0.784
	h-12.173h-0.34h-1.806c-1.735,0-3.159,1.422-3.159,3.166v9.346c0,1.736,1.424,3.16,3.159,3.16H950.231z M946.072,493.519h3.992
	c0.383,0,0.695,0.313,0.695,0.694v9.916c0,0.381-0.313,0.693-0.695,0.693h-3.992V493.519z M991.228,479.437
	c0-8.665,0-9.901,0-18.567c0-1.729-1.431-3.166-3.16-3.166c-10.776,0-9.256,0-20.025,0c-4.257,0-9.756,17.067-9.756,23.441
	c0,9.389-0.375,10.693,2.458,10.693c2.882,0,5.694,0,8.479,0c2.298,0,5.527-7.381,8.492-7.381c2.826,0,7.187-0.049,9.61-0.049
	C990.38,484.408,991.228,483.339,991.228,479.437L991.228,479.437z M1042.479,512.434h2.242c-0.402,0.506-0.777,1.033-1.125,1.582
	C1043.256,513.467,1042.881,512.939,1042.479,512.434L1042.479,512.434z M1072.912,512.434h103.829
	c-2.431,3.068-3.889,6.943-3.889,11.164c0,1.557,0.201,3.07,0.569,4.508h-97.197c0.375-1.438,0.576-2.951,0.576-4.508
	C1076.801,519.377,1075.343,515.502,1072.912,512.434L1072.912,512.434z M1204.933,512.434h2.242
	c-0.402,0.506-0.777,1.033-1.125,1.582C1205.71,513.467,1205.335,512.939,1204.933,512.434L1204.933,512.434z M1235.366,512.434
	h2.243c-0.403,0.506-0.777,1.033-1.118,1.582C1236.145,513.467,1235.77,512.939,1235.366,512.434L1235.366,512.434z
	 M1265.801,512.434h6.68c1.909,0,3.472,1.561,3.472,3.471v8.729c0,1.91-1.563,3.473-3.472,3.473h-3.361
	c0.368-1.438,0.57-2.951,0.57-4.508C1269.689,519.377,1268.23,515.502,1265.801,512.434L1265.801,512.434z"/>
<path fill-rule="evenodd" clip-rule="evenodd" fill="#221F20" d="M349.835,807.764h0.576h13.818
	c-0.361-1.445-0.555-2.951-0.555-4.506c0-10.256,8.312-18.568,18.567-18.568c8.812,0,16.186,6.139,18.088,14.373v-58.535
	c0-4.354-3.563-7.916-7.916-7.916c-10.776,0-21.546,0-32.323,0c-2.014,0-4.111,1.855-6.131,4.75h6.367
	c-1.104,0.57-2.958,3.396-3.527,4.34c-1.986,3.285-3.597,7.014-4.979,10.596c-1.458,3.791-2.743,7.715-3.791,11.652l-0.042,0.146
	h-4.895c-0.75,2.979-1.174,5.359-1.174,6.617v17.205h12.964c1.146,0,2.083,0.938,2.083,2.084c0,1.152-0.938,2.082-2.083,2.082
	h-0.784h-12.18h-0.333h-1.805c-1.736,0-3.16,1.432-3.16,3.168v9.346c0,1.742,1.423,3.166,3.16,3.166H349.835z M404.496,784.447
	h140.977h2.958h22.761h13.596l-29.803-60.855l-147.018-6.797c-0.104,0-0.201,0-0.292,0l0,0H374.75v10.471h29.747V784.447z
	 M416.363,724.51l134.318,7.193c1.146,0.063,2.027,1.041,1.965,2.188c-0.056,1.145-1.042,2.033-2.187,1.971l-134.318-7.193
	c-1.146-0.063-2.028-1.049-1.972-2.193C414.231,725.328,415.217,724.447,416.363,724.51L416.363,724.51z M425.841,749.756v22.596
	c0,1.145-0.938,2.082-2.083,2.082s-2.083-0.938-2.083-2.082v-22.596c0-1.145,0.938-2.082,2.083-2.082
	S425.841,748.611,425.841,749.756L425.841,749.756z M448.248,749.756v22.596c0,1.145-0.938,2.082-2.083,2.082
	c-1.146,0-2.083-0.938-2.083-2.082v-22.596c0-1.145,0.937-2.082,2.083-2.082C447.311,747.674,448.248,748.611,448.248,749.756
	L448.248,749.756z M470.648,749.756v22.596c0,1.145-0.931,2.082-2.083,2.082c-1.146,0-2.083-0.938-2.083-2.082v-22.596
	c0-1.145,0.938-2.082,2.083-2.082C469.718,747.674,470.648,748.611,470.648,749.756L470.648,749.756z M493.056,749.756v22.596
	c0,1.145-0.938,2.082-2.083,2.082c-1.146,0-2.083-0.938-2.083-2.082v-22.596c0-1.145,0.938-2.082,2.083-2.082
	C492.118,747.674,493.056,748.611,493.056,749.756L493.056,749.756z M515.463,749.756v22.596c0,1.145-0.938,2.082-2.083,2.082
	c-1.146,0-2.083-0.938-2.083-2.082v-22.596c0-1.145,0.938-2.082,2.083-2.082C514.525,747.674,515.463,748.611,515.463,749.756
	L515.463,749.756z M537.863,749.756v22.596c0,1.145-0.93,2.082-2.083,2.082c-1.146,0-2.083-0.938-2.083-2.082v-22.596
	c0-1.145,0.938-2.082,2.083-2.082C536.933,747.674,537.863,748.611,537.863,749.756L537.863,749.756z M427.986,806.652
	c-1.881,0-3.402-1.521-3.402-3.395c0-1.883,1.521-3.402,3.402-3.402c1.875,0,3.396,1.52,3.396,3.402
	C431.382,805.131,429.861,806.652,427.986,806.652L427.986,806.652z M427.986,817.068c-7.631,0-13.818-6.188-13.818-13.811
	c0-7.633,6.187-13.818,13.818-13.818c7.631,0,13.811,6.186,13.811,13.818C441.797,810.881,435.618,817.068,427.986,817.068
	L427.986,817.068z M427.986,811.09c-4.333,0-7.839-3.508-7.839-7.832c0-4.334,3.507-7.84,7.839-7.84c4.326,0,7.839,3.506,7.839,7.84
	C435.826,807.582,432.313,811.09,427.986,811.09L427.986,811.09z M547.341,806.652c-1.882,0-3.402-1.521-3.402-3.395
	c0-1.883,1.521-3.402,3.402-3.402c1.875,0,3.396,1.52,3.396,3.402C550.737,805.131,549.216,806.652,547.341,806.652L547.341,806.652
	z M547.341,817.068c-7.631,0-13.818-6.188-13.818-13.811c0-7.633,6.187-13.818,13.818-13.818c7.631,0,13.811,6.186,13.811,13.818
	C561.152,810.881,554.972,817.068,547.341,817.068L547.341,817.068z M547.341,811.09c-4.333,0-7.839-3.508-7.839-7.832
	c0-4.334,3.506-7.84,7.839-7.84c4.326,0,7.839,3.506,7.839,7.84C555.181,807.582,551.667,811.09,547.341,811.09L547.341,811.09z
	 M404.496,792.084h9.395c-2.437,3.07-3.888,6.951-3.888,11.174c0,1.555,0.201,3.068,0.569,4.506h-6.076V792.084z M442.075,792.084
	h60.736c-2.438,3.07-3.889,6.951-3.889,11.174c0,1.555,0.195,3.068,0.569,4.506h-13.054c-0.278,1.639-1.715,2.889-3.423,2.889h-23.9
	c-1.715,0-3.146-1.25-3.423-2.889h-10.298c0.375-1.438,0.57-2.951,0.57-4.506C445.964,799.035,444.512,795.154,442.075,792.084
	L442.075,792.084z M530.996,792.084h2.25c-0.403,0.508-0.778,1.043-1.125,1.592C531.773,793.127,531.398,792.592,530.996,792.084
	L530.996,792.084z M561.43,792.084h15.318c1.91,0,3.472,1.563,3.472,3.473v8.734c0,1.91-1.562,3.473-3.472,3.473h-11.999
	c0.375-1.438,0.569-2.951,0.569-4.506C565.318,799.035,563.867,795.154,561.43,792.084L561.43,792.084z M516.9,806.652
	c-1.875,0-3.395-1.521-3.395-3.395c0-1.883,1.521-3.402,3.395-3.402c1.882,0,3.403,1.52,3.403,3.402
	C520.303,805.131,518.782,806.652,516.9,806.652L516.9,806.652z M516.9,817.068c-7.624,0-13.811-6.188-13.811-13.811
	c0-7.633,6.187-13.818,13.811-13.818c7.631,0,13.818,6.186,13.818,13.818C530.718,810.881,524.531,817.068,516.9,817.068
	L516.9,817.068z M516.9,811.09c-4.326,0-7.832-3.508-7.832-7.832c0-4.334,3.506-7.84,7.832-7.84c4.333,0,7.84,3.506,7.84,7.84
	C524.74,807.582,521.233,811.09,516.9,811.09L516.9,811.09z M382.242,806.652c-1.882,0-3.402-1.521-3.402-3.395
	c0-1.883,1.521-3.402,3.402-3.402c1.875,0,3.396,1.52,3.396,3.402C385.637,805.131,384.116,806.652,382.242,806.652L382.242,806.652
	z M382.242,817.068c-7.631,0-13.818-6.188-13.818-13.811c0-7.633,6.187-13.818,13.818-13.818c7.624,0,13.811,6.186,13.811,13.818
	C396.053,810.881,389.866,817.068,382.242,817.068L382.242,817.068z M382.242,811.09c-4.333,0-7.839-3.508-7.839-7.832
	c0-4.334,3.506-7.84,7.839-7.84c4.326,0,7.833,3.506,7.833,7.84C390.074,807.582,386.567,811.09,382.242,811.09L382.242,811.09z
	 M345.669,773.178h3.993c0.382,0,0.694,0.313,0.694,0.693v9.908c0,0.383-0.313,0.695-0.694,0.695h-3.993V773.178z M390.831,759.096
	c0-8.666,0-9.902,0-18.568c0-1.736-1.431-3.166-3.167-3.166c-10.77,0-9.249,0-20.019,0c-4.256,0-9.763,17.068-9.763,23.436
	c0,9.395-0.375,10.699,2.458,10.699c2.889,0,5.701,0,8.478,0c2.306,0,5.534-7.381,8.499-7.381c2.819,0,7.187-0.049,9.61-0.049
	C389.984,764.066,390.831,762.998,390.831,759.096L390.831,759.096z"/>
<path fill-rule="evenodd" clip-rule="evenodd" fill="#221F20" d="M657.258,807.764h0.577h13.818
	c-0.361-1.445-0.556-2.951-0.556-4.506c0-10.256,8.312-18.568,18.567-18.568c8.812,0,16.186,6.139,18.088,14.373v-58.535
	c0-4.354-3.563-7.916-7.916-7.916c-10.77,0-21.546,0-32.323,0c-2.014,0-4.11,1.855-6.131,4.75h6.368
	c-1.104,0.57-2.958,3.396-3.527,4.34c-1.986,3.285-3.597,7.014-4.979,10.596c-1.458,3.791-2.743,7.715-3.792,11.652l-0.035,0.146
	h-4.902c-0.743,2.979-1.167,5.359-1.167,6.617v17.205h12.957c1.146,0,2.083,0.938,2.083,2.084c0,1.152-0.938,2.082-2.083,2.082
	h-0.785h-12.172h-0.34h-1.805c-1.736,0-3.159,1.432-3.159,3.168v9.346c0,1.742,1.423,3.166,3.159,3.166H657.258z M628.865,766.311
	c0,1.5,0.59,2.922,1.653,3.979c1.055,1.063,2.479,1.652,3.979,1.652s2.923-0.59,3.986-1.652c1.063-1.057,1.652-2.479,1.652-3.979
	c0-1.389-0.188-2.764-0.743-4.049c-0.438-1.008-1.049-1.834-1.743-2.674c-0.146-0.174-0.292-0.348-0.438-0.52
	c-1.007-1.182-1.889-2.285-2.555-3.709c-0.298-0.631-0.528-1.291-0.701-1.957h-1.215c-1.909,0-3.472-1.563-3.472-3.473v-9.68
	c0-1.908,1.563-3.471,3.472-3.471h1.153v-3.348l2.777-0.791v4.139h1.16c1.91,0,3.472,1.563,3.472,3.471v9.68
	c0,1.91-1.563,3.473-3.472,3.473h-1.701c0.118,0.375,0.264,0.734,0.431,1.09c0.576,1.236,1.368,2.201,2.243,3.234
	c0.153,0.182,0.306,0.355,0.452,0.543c0.826,0.992,1.541,1.971,2.062,3.166c0.667,1.549,0.903,3.193,0.903,4.875
	c0,2.047-0.813,4.006-2.264,5.457s-3.402,2.256-5.458,2.256c-2.048,0-4-0.805-5.451-2.256s-2.264-3.41-2.264-5.457
	c0-0.383,0.313-0.695,0.694-0.695h0.694C628.553,765.615,628.865,765.928,628.865,766.311L628.865,766.311z M629.629,710.018h18.796
	v17.115l-18.796,5.34c-3.139,0.896-5.937-2.666-5.937-5.93v-10.588C623.692,712.691,626.366,710.018,629.629,710.018
	L629.629,710.018z M632.816,713.504c2.361,0,4.277,1.908,4.277,4.27c0,2.354-1.917,4.271-4.277,4.271
	c-2.354,0-4.271-1.918-4.271-4.271C628.546,715.412,630.462,713.504,632.816,713.504L632.816,713.504z M792.562,784.447h-80.644
	v-5.652v-7.693v-28.873h9.937c1.882,0.035,3.416,1.584,3.416,3.473v0.063v7.639v17.699h67.291V784.447z M673.812,712.072h-23.087
	v13.354h23.087V712.072z M732.166,710.434h-56.271v16.623h38.21c0-0.625,0.243-1.166,0.715-1.576L732.166,710.434z M738.783,707.447
	h138.054h7.666c1.909,0,3.472,1.563,3.472,3.473v7.701v0.25v7.637v0.063c0,1.91-1.563,3.473-3.472,3.473h-0.271h-7.396H716.188
	v-2.986L738.783,707.447z M859.437,711.996c3.729,0,6.749,3.021,6.749,6.75s-3.021,6.748-6.749,6.748
	c-3.729,0-6.749-3.02-6.749-6.748S855.707,711.996,859.437,711.996L859.437,711.996z M842.688,763.484v-24.533
	c0-3.215-2.632-5.846-5.847-5.846c-7.958,0-15.922,0-23.879,0c-1.486,0-3.035,1.367-4.528,3.506h4.701
	c-0.819,0.424-2.188,2.514-2.604,3.209c-1.465,2.43-2.659,5.186-3.681,7.824c-1.076,2.807-2.027,5.709-2.798,8.611l-0.028,0.104
	h-3.624c-0.549,2.209-0.861,3.965-0.861,4.895v12.652v0.063v7.207c0,1.799,1.473,3.271,3.277,3.271h0.257h6.979h51.313h7.235
	c1.799,0,3.277-1.473,3.277-3.271v-7.145v-0.063v-0.063v-7.145c0-1.799-1.479-3.277-3.277-3.277h-0.257h-8.158
	c-1.146,0-2.083-0.932-2.083-2.084c0-1.145,0.937-2.082,2.083-2.082h8.158v-15.041v-7.701c0-1.908-1.563-3.471-3.472-3.471H857.2
	h-6.464v30.379H842.688z M859.666,735.959c2.943,0,5.325,2.389,5.325,5.326c0,2.943-2.382,5.332-5.325,5.332
	c-2.944,0-5.326-2.389-5.326-5.332C854.34,738.348,856.722,735.959,859.666,735.959L859.666,735.959z M802.311,763.074h2.951
	c0.277,0,0.507,0.229,0.507,0.514v7.318c0,0.285-0.229,0.514-0.507,0.514h-2.951V763.074z M835.675,752.672
	c0-6.402,0-7.318,0-13.721c0-1.277-1.063-2.34-2.34-2.34c-7.957,0-6.832,0-14.797,0c-3.139,0-7.208,12.609-7.208,17.318
	c0,6.936-0.271,7.902,1.819,7.902c2.132,0,4.208,0,6.264,0c1.701,0,4.083-5.451,6.277-5.451c2.083,0,5.305-0.035,7.103-0.035
	C835.05,756.346,835.675,755.555,835.675,752.672L835.675,752.672z M735.408,806.652c-1.882,0-3.402-1.521-3.402-3.395
	c0-1.883,1.521-3.402,3.402-3.402c1.875,0,3.402,1.52,3.402,3.402C738.811,805.131,737.283,806.652,735.408,806.652L735.408,806.652
	z M735.408,817.068c-7.631,0-13.817-6.188-13.817-13.811c0-7.633,6.187-13.818,13.817-13.818c7.632,0,13.818,6.186,13.818,13.818
	C749.227,810.881,743.04,817.068,735.408,817.068L735.408,817.068z M735.408,811.09c-4.332,0-7.839-3.508-7.839-7.832
	c0-4.334,3.507-7.84,7.839-7.84c4.326,0,7.84,3.506,7.84,7.84C743.248,807.582,739.734,811.09,735.408,811.09L735.408,811.09z
	 M854.764,806.652c-1.882,0-3.402-1.521-3.402-3.395c0-1.883,1.521-3.402,3.402-3.402c1.874,0,3.402,1.52,3.402,3.402
	C858.166,805.131,856.638,806.652,854.764,806.652L854.764,806.652z M854.764,817.068c-7.632,0-13.818-6.188-13.818-13.811
	c0-7.633,6.187-13.818,13.818-13.818c7.631,0,13.817,6.186,13.817,13.818C868.581,810.881,862.395,817.068,854.764,817.068
	L854.764,817.068z M854.764,811.09c-4.333,0-7.84-3.508-7.84-7.832c0-4.334,3.507-7.84,7.84-7.84c4.325,0,7.839,3.506,7.839,7.84
	C862.603,807.582,859.089,811.09,854.764,811.09L854.764,811.09z M711.918,792.084h9.395c-2.43,3.07-3.888,6.951-3.888,11.174
	c0,1.555,0.201,3.068,0.569,4.506h-6.076V792.084z M749.504,792.084h60.729c-2.438,3.07-3.889,6.951-3.889,11.174
	c0,1.555,0.202,3.068,0.569,4.506H793.86c-0.277,1.639-1.708,2.889-3.423,2.889h-23.9c-1.715,0-3.146-1.25-3.424-2.889h-10.297
	c0.375-1.438,0.576-2.951,0.576-4.506C753.393,799.035,751.935,795.154,749.504,792.084L749.504,792.084z M838.418,792.084h2.25
	c-0.403,0.508-0.778,1.043-1.125,1.592C839.195,793.127,838.82,792.592,838.418,792.084L838.418,792.084z M868.858,792.084h15.312
	c1.909,0,3.472,1.563,3.472,3.473v8.734c0,1.91-1.563,3.473-3.472,3.473h-11.999c0.375-1.438,0.576-2.951,0.576-4.506
	C872.747,799.035,871.289,795.154,868.858,792.084L868.858,792.084z M824.329,806.652c-1.882,0-3.402-1.521-3.402-3.395
	c0-1.883,1.521-3.402,3.402-3.402c1.875,0,3.396,1.52,3.396,3.402C827.725,805.131,826.204,806.652,824.329,806.652L824.329,806.652
	z M824.329,817.068c-7.631,0-13.818-6.188-13.818-13.811c0-7.633,6.188-13.818,13.818-13.818s13.812,6.186,13.812,13.818
	C838.141,810.881,831.96,817.068,824.329,817.068L824.329,817.068z M824.329,811.09c-4.333,0-7.84-3.508-7.84-7.832
	c0-4.334,3.507-7.84,7.84-7.84c4.326,0,7.84,3.506,7.84,7.84C832.169,807.582,828.655,811.09,824.329,811.09L824.329,811.09z
	 M689.664,806.652c-1.882,0-3.402-1.521-3.402-3.395c0-1.883,1.521-3.402,3.402-3.402c1.875,0,3.396,1.52,3.396,3.402
	C693.06,805.131,691.539,806.652,689.664,806.652L689.664,806.652z M689.664,817.068c-7.631,0-13.818-6.188-13.818-13.811
	c0-7.633,6.187-13.818,13.818-13.818c7.631,0,13.811,6.186,13.811,13.818C703.475,810.881,697.295,817.068,689.664,817.068
	L689.664,817.068z M689.664,811.09c-4.333,0-7.839-3.508-7.839-7.832c0-4.334,3.507-7.84,7.839-7.84c4.326,0,7.839,3.506,7.839,7.84
	C697.503,807.582,693.99,811.09,689.664,811.09L689.664,811.09z M653.099,773.178h3.993c0.382,0,0.694,0.313,0.694,0.693v9.908
	c0,0.383-0.313,0.695-0.694,0.695h-3.993V773.178z M698.253,759.096c0-8.666,0-9.902,0-18.568c0-1.736-1.43-3.166-3.159-3.166
	c-10.777,0-9.256,0-20.026,0c-4.256,0-9.755,17.068-9.755,23.436c0,9.395-0.375,10.699,2.458,10.699c2.881,0,5.693,0,8.478,0
	c2.298,0,5.527-7.381,8.492-7.381c2.826,0,7.187-0.049,9.61-0.049C697.406,764.066,698.253,762.998,698.253,759.096L698.253,759.096
	z"/>
<path fill-rule="evenodd" clip-rule="evenodd" fill="#221F20" d="M1004.893,792.084h9.395c-2.431,3.07-3.889,6.951-3.889,11.174
	c0,1.555,0.201,3.068,0.569,4.506h-6.075V792.084z M1009.253,784.447h28.719h3.5h7.006h1.368h2.132l1.874-14.256h-3.499
	l1.326-10.096l-6.888-0.902l-1.444,10.998h-3.5l-0.931,7.104h-29.663V715.58c0-2.326,1.701-4.201,3.798-4.201
	c1.146,0,2.083-1.035,2.083-2.307c0-1.27-0.937-2.305-2.083-2.305c-4.402,0-7.964,3.943-7.964,8.813v68.867h2.229H1009.253z
	 M1031.604,688.076l257.131,33.689c1.889,0.244,3.235,2,2.993,3.889l-7.771,59.279c-0.25,1.887-2,3.234-3.896,2.984l-260.567-34.135
	l8.214-62.715C1027.959,689.172,1029.709,687.826,1031.604,688.076L1031.604,688.076z M1050.498,737.889l210.789,27.615
	c1.139,0.152,1.944,1.201,1.799,2.34c-0.153,1.139-1.201,1.945-2.341,1.793l-210.788-27.615c-1.132-0.154-1.938-1.201-1.792-2.34
	C1048.311,738.549,1049.366,737.744,1050.498,737.889L1050.498,737.889z M1042.082,700.352l30.81,4.041
	c1.139,0.146,1.944,1.195,1.799,2.334c-0.153,1.139-1.202,1.943-2.341,1.799l-30.809-4.041c-1.139-0.146-1.944-1.195-1.799-2.334
	C1039.896,701.012,1040.943,700.207,1042.082,700.352L1042.082,700.352z M1090.896,706.754l182.375,23.893
	c1.132,0.146,1.944,1.201,1.792,2.334c-0.146,1.139-1.201,1.943-2.333,1.799l-182.376-23.895c-1.132-0.152-1.943-1.201-1.791-2.34
	C1088.709,707.406,1089.758,706.602,1090.896,706.754L1090.896,706.754z M1028.383,806.652c-1.882,0-3.402-1.521-3.402-3.395
	c0-1.883,1.521-3.402,3.402-3.402c1.875,0,3.402,1.52,3.402,3.402C1031.785,805.131,1030.258,806.652,1028.383,806.652
	L1028.383,806.652z M1028.383,817.068c-7.631,0-13.818-6.188-13.818-13.811c0-7.633,6.188-13.818,13.818-13.818
	s13.811,6.186,13.811,13.818C1042.193,810.881,1036.014,817.068,1028.383,817.068L1028.383,817.068z M1028.383,811.09
	c-4.333,0-7.84-3.508-7.84-7.832c0-4.334,3.507-7.84,7.84-7.84c4.326,0,7.839,3.506,7.839,7.84
	C1036.222,807.582,1032.709,811.09,1028.383,811.09L1028.383,811.09z M1058.816,806.652c-1.882,0-3.402-1.521-3.402-3.395
	c0-1.883,1.521-3.402,3.402-3.402c1.875,0,3.402,1.52,3.402,3.402C1062.219,805.131,1060.691,806.652,1058.816,806.652
	L1058.816,806.652z M1058.816,817.068c-7.631,0-13.817-6.188-13.817-13.811c0-7.633,6.187-13.818,13.817-13.818
	c7.632,0,13.818,6.186,13.818,13.818C1072.635,810.881,1066.448,817.068,1058.816,817.068L1058.816,817.068z M1058.816,811.09
	c-4.325,0-7.839-3.508-7.839-7.832c0-4.334,3.514-7.84,7.839-7.84c4.326,0,7.84,3.506,7.84,7.84
	C1066.656,807.582,1063.143,811.09,1058.816,811.09L1058.816,811.09z M1190.837,806.652c-1.882,0-3.402-1.521-3.402-3.395
	c0-1.883,1.521-3.402,3.402-3.402c1.875,0,3.402,1.52,3.402,3.402C1194.239,805.131,1192.712,806.652,1190.837,806.652
	L1190.837,806.652z M1190.837,817.068c-7.632,0-13.818-6.188-13.818-13.811c0-7.633,6.187-13.818,13.818-13.818
	c7.631,0,13.811,6.186,13.811,13.818C1204.647,810.881,1198.468,817.068,1190.837,817.068L1190.837,817.068z M1190.837,811.09
	c-4.333,0-7.84-3.508-7.84-7.832c0-4.334,3.507-7.84,7.84-7.84c4.325,0,7.839,3.506,7.839,7.84
	C1198.676,807.582,1195.162,811.09,1190.837,811.09L1190.837,811.09z M1251.705,806.652c-1.875,0-3.402-1.521-3.402-3.395
	c0-1.883,1.527-3.402,3.402-3.402c1.881,0,3.402,1.52,3.402,3.402C1255.107,805.131,1253.586,806.652,1251.705,806.652
	L1251.705,806.652z M1251.705,817.068c-7.631,0-13.818-6.188-13.818-13.811c0-7.633,6.188-13.818,13.818-13.818
	s13.817,6.186,13.817,13.818C1265.522,810.881,1259.336,817.068,1251.705,817.068L1251.705,817.068z M1251.705,811.09
	c-4.326,0-7.84-3.508-7.84-7.832c0-4.334,3.514-7.84,7.84-7.84c4.333,0,7.839,3.506,7.839,7.84
	C1259.544,807.582,1256.038,811.09,1251.705,811.09L1251.705,811.09z M1221.271,806.652c-1.882,0-3.402-1.521-3.402-3.395
	c0-1.883,1.521-3.402,3.402-3.402c1.875,0,3.402,1.52,3.402,3.402C1224.673,805.131,1223.146,806.652,1221.271,806.652
	L1221.271,806.652z M1221.271,817.068c-7.631,0-13.817-6.188-13.817-13.811c0-7.633,6.187-13.818,13.817-13.818
	s13.818,6.186,13.818,13.818C1235.089,810.881,1228.901,817.068,1221.271,817.068L1221.271,817.068z M1221.271,811.09
	c-4.325,0-7.839-3.508-7.839-7.832c0-4.334,3.514-7.84,7.839-7.84c4.326,0,7.84,3.506,7.84,7.84
	C1229.11,807.582,1225.597,811.09,1221.271,811.09L1221.271,811.09z M982.638,806.652c-1.882,0-3.402-1.521-3.402-3.395
	c0-1.883,1.521-3.402,3.402-3.402c1.875,0,3.396,1.52,3.396,3.402C986.033,805.131,984.513,806.652,982.638,806.652L982.638,806.652
	z M982.638,817.068c-7.631,0-13.817-6.188-13.817-13.811c0-7.633,6.187-13.818,13.817-13.818s13.811,6.186,13.811,13.818
	C996.448,810.881,990.269,817.068,982.638,817.068L982.638,817.068z M982.638,811.09c-4.333,0-7.839-3.508-7.839-7.832
	c0-4.334,3.506-7.84,7.839-7.84c4.326,0,7.84,3.506,7.84,7.84C990.478,807.582,986.964,811.09,982.638,811.09L982.638,811.09z
	 M950.231,807.764h0.576h13.818c-0.361-1.445-0.556-2.951-0.556-4.506c0-10.256,8.312-18.568,18.567-18.568
	c8.812,0,16.186,6.139,18.089,14.373v-58.535c0-4.354-3.563-7.916-7.916-7.916c-10.771,0-21.547,0-32.323,0
	c-2.014,0-4.11,1.855-6.131,4.75h6.367c-1.104,0.57-2.958,3.396-3.527,4.34c-1.986,3.285-3.597,7.014-4.979,10.596
	c-1.458,3.791-2.743,7.715-3.791,11.652l-0.035,0.146h-4.902c-0.743,2.979-1.167,5.359-1.167,6.617v17.205h12.957
	c1.146,0,2.083,0.938,2.083,2.084c0,1.152-0.937,2.082-2.083,2.082h-0.784h-12.173h-0.34h-1.806c-1.735,0-3.159,1.432-3.159,3.168
	v9.346c0,1.742,1.424,3.166,3.159,3.166H950.231z M946.072,773.178h3.992c0.383,0,0.695,0.313,0.695,0.693v9.908
	c0,0.383-0.313,0.695-0.695,0.695h-3.992V773.178z M991.228,759.096c0-8.666,0-9.902,0-18.568c0-1.736-1.431-3.166-3.16-3.166
	c-10.776,0-9.256,0-20.025,0c-4.257,0-9.756,17.068-9.756,23.436c0,9.395-0.375,10.699,2.458,10.699c2.882,0,5.694,0,8.479,0
	c2.298,0,5.527-7.381,8.492-7.381c2.826,0,7.187-0.049,9.61-0.049C990.38,764.066,991.228,762.998,991.228,759.096L991.228,759.096z
	 M1042.479,792.084h2.242c-0.402,0.508-0.777,1.035-1.125,1.584C1043.256,793.119,1042.881,792.592,1042.479,792.084
	L1042.479,792.084z M1072.912,792.084h103.829c-2.431,3.07-3.889,6.951-3.889,11.174c0,1.555,0.201,3.068,0.569,4.506h-97.197
	c0.375-1.438,0.576-2.951,0.576-4.506C1076.801,799.035,1075.343,795.154,1072.912,792.084L1072.912,792.084z M1204.933,792.084
	h2.242c-0.402,0.508-0.777,1.035-1.125,1.584C1205.71,793.119,1205.335,792.592,1204.933,792.084L1204.933,792.084z
	 M1235.366,792.084h2.243c-0.403,0.508-0.777,1.035-1.118,1.584C1236.145,793.119,1235.77,792.592,1235.366,792.084
	L1235.366,792.084z M1265.801,792.084h6.68c1.909,0,3.472,1.563,3.472,3.473v8.734c0,1.91-1.563,3.473-3.472,3.473h-3.361
	c0.368-1.438,0.57-2.951,0.57-4.506C1269.689,799.035,1268.23,795.154,1265.801,792.084L1265.801,792.084z"/>
</svg>
